# xmcd CD database file generated by freedbAccess_ocx
#
# Track frame offsets:
#       150
#       21812
#       33982
#       50605
#       65225
#       80532
#       90505
#       103610
#       117375
#       131014
#       147110
#       160230
#       172125
#       188150
#       201600
#       217712
#
# Disc length: 3057 seconds
#
# Revision: 0
# Processed by: cddbd v1.5.2PL0 Copyright (c) Steve Scherf et al.
# Submitted via: CDnGo 2.00
#
DISCID=e80bef10
DTITLE=Various Artist - 48 Nr. 1 Country Hits Vol. 2
DYEAR=1900
DGENRE=Country
TTITLE0=Willie Nelson - City Of New Orleans
TTITLE1=Merle Haggard - You Take Me For Granted
TTITLE2=Alabama - Touch Me When We're Dancing
TTITLE3=Rosanne Cash - Seven Year Ache
TTITLE4=B. J. Thomas - What Ever Happened To Old Fashioned Love
TTITLE5=Charly McClain - Who's Cheatin' Who
TTITLE6=Janie Frickie - He's A Heartach (Lookin' For A Place To Happen)
TTITLE7=John Conlee - Got My Heart Set On You
TTITLE8=George Jones and Tammy Wynette - Golden Ring
TTITLE9=T. G. Sheppard - Strong Heart
TTITLE10=Mickey Gilley - True Love Ways
TTITLE11=Larry Gatlin and The Gatlin Brothers - All The Gold In California
TTITLE12=David Houston and Tammy Wynette - My Elusive Dreams
TTITLE13=Ricky Skaggs - Crying My Heart Out Over You
TTITLE14=Exile - She's A Miracle
TTITLE15=Johnny Cash - Flesh And Blood
EXTD=
EXTT0=
EXTT1=
EXTT2=
EXTT3=
EXTT4=
EXTT5=
EXTT6=
EXTT7=
EXTT8=
EXTT9=
EXTT10=
EXTT11=
EXTT12=
EXTT13=
EXTT14=
EXTT15=
PLAYORDER=
